<svg xmlns="http://www.w3.org/2000/svg" data-name="Layer 1" viewBox="0 0 512 512"><path d="m3.909 141.738 73.889 40.303a7.447 7.447 0 0 0 .822.385c.056.022.114.041.171.062q.322.12.656.21c.076.021.151.041.227.06.213.05.43.09.649.12.073.012.145.026.218.034a7.007 7.007 0 0 0 1.728 0c.073-.008.145-.022.218-.033a7.46 7.46 0 0 0 .876-.18q.334-.09.655-.21c.057-.022.115-.04.172-.063a7.447 7.447 0 0 0 .822-.385l73.889-40.303a7.5 7.5 0 0 0 3.909-6.584V47.812c0-.03-.006-.06-.007-.09a7.447 7.447 0 0 0-.247-1.823c-.019-.071-.04-.141-.061-.212q-.102-.342-.237-.677c-.029-.07-.055-.14-.085-.21a7.543 7.543 0 0 0-.406-.804l-.006-.008-.02-.03a7.557 7.557 0 0 0-.495-.722c-.048-.061-.098-.12-.148-.18q-.23-.281-.483-.535c-.05-.05-.097-.1-.147-.147a7.448 7.448 0 0 0-1.484-1.093c-.029-.017-.054-.038-.083-.053L84.996.916a7.501 7.501 0 0 0-7.183 0L3.91 41.228c-.03.016-.055.037-.084.053a7.455 7.455 0 0 0-1.482 1.092c-.051.048-.1.1-.15.15q-.251.252-.48.531c-.05.061-.102.121-.15.184a7.52 7.52 0 0 0-.495.72l-.02.03-.005.008a7.543 7.543 0 0 0-.407.804c-.03.07-.056.14-.084.21q-.136.336-.237.677c-.021.07-.043.14-.061.212a7.447 7.447 0 0 0-.248 1.823c0 .03-.006.06-.006.09v87.342a7.5 7.5 0 0 0 3.909 6.584Zm143.9-11.036-58.904 32.13v-67.07l58.905-34.807ZM81.406 16.043l58.72 32.03-58.72 34.698-58.72-34.699ZM15 60.955l58.905 34.807v67.07L15 130.702Zm284.32 418.151-.313.051a7.565 7.565 0 1 0 .313-.05Zm1.269 8.512-.162-1.094.177 1.181ZM511.994 47.722a7.447 7.447 0 0 0-.248-1.823c-.018-.071-.04-.141-.06-.212q-.102-.342-.238-.677c-.028-.07-.054-.14-.084-.21a7.543 7.543 0 0 0-.407-.804l-.006-.008-.019-.03a7.532 7.532 0 0 0-.495-.72c-.048-.063-.1-.122-.15-.183q-.229-.28-.48-.533l-.15-.15a7.452 7.452 0 0 0-1.481-1.09c-.03-.017-.055-.038-.085-.055L434.187.916a7.501 7.501 0 0 0-7.183 0l-73.905 40.312c-.03.016-.056.037-.085.054a7.446 7.446 0 0 0-1.48 1.09c-.052.05-.101.102-.152.153q-.25.25-.478.528c-.05.062-.102.122-.151.185a7.542 7.542 0 0 0-.494.72l-.02.03-.006.008a7.543 7.543 0 0 0-.406.804c-.03.07-.056.14-.085.21q-.135.336-.237.677c-.02.07-.042.14-.061.212a7.447 7.447 0 0 0-.247 1.823c0 .03-.007.06-.007.09v87.342a7.5 7.5 0 0 0 3.91 6.584l73.888 40.303a7.447 7.447 0 0 0 .822.385c.057.022.115.041.172.062q.321.12.655.21l.228.06c.213.05.429.09.648.12.073.012.145.026.218.034a7.007 7.007 0 0 0 1.728 0c.073-.008.145-.022.218-.033a7.46 7.46 0 0 0 .876-.18q.335-.09.656-.21c.057-.022.115-.04.171-.063a7.447 7.447 0 0 0 .822-.385l73.89-40.303a7.5 7.5 0 0 0 3.908-6.584V47.812c0-.03-.006-.06-.006-.09Zm-88.899 115.11-58.905-32.13V60.955l58.905 34.807Zm7.5-80.061-58.72-34.699 58.72-32.029 58.72 32.03ZM497 130.702l-58.905 32.13v-67.07L497 60.955ZM22.98 294.007c.148 0 .297-.004.447-.013a7.5 7.5 0 0 0 7.047-7.928l-.014-.209a7.5 7.5 0 0 0-14.961 1.068l7.488-.418-7.487.44a7.5 7.5 0 0 0 7.48 7.06Zm2.285-59.73a7.493 7.493 0 0 0 8.808-5.91l.027-.138a7.5 7.5 0 0 0-14.733-2.816l7.347 1.506-7.358-1.45a7.5 7.5 0 0 0 5.91 8.808Zm-9.782 21.667-.013.21a7.504 7.504 0 0 0 7.046 7.932c.15.008.3.012.448.012a7.55 7.55 0 1 0-7.481-8.154Zm196.64-220.067a7.509 7.509 0 1 0-1.473-14.855c-.07.014-.237.053-.307.07a7.5 7.5 0 0 0 1.78 14.785ZM327.42 472.702a7.5 7.5 0 0 0 4.08 14.434c.068-.019.232-.067.3-.088a7.5 7.5 0 0 0-4.38-14.346Zm.867-433.552c.078.025.25.076.329.096a7.56 7.56 0 1 0-.329-.096Zm-56.875-9.044.225.003a7.5 7.5 0 0 0 .216-14.997l-.1-.003a7.466 7.466 0 0 0-7.667 7.279 7.543 7.543 0 0 0 7.326 7.718Zm28.768 2.707a7.5 7.5 0 0 0 2.554-14.78c-.072-.014-.24-.04-.313-.052a7.5 7.5 0 0 0-2.241 14.832Zm-58.551-1.716c.221 0 .444-.01.668-.03.076-.006.252-.024.329-.033a7.522 7.522 0 1 0-.997.063Zm-58.24 13.348a7.526 7.526 0 1 0-2.326-14.64l-.254.093a7.508 7.508 0 0 0 2.58 14.547ZM19.448 317.623a7.443 7.443 0 0 0 7.321 6.005 7.524 7.524 0 1 0-1.39-14.918 7.5 7.5 0 0 0-5.96 8.774c.004.014.025.125.028.139ZM270.43 481.88l-.102.003a7.5 7.5 0 0 0 .22 14.997l.227-.003-.124-7.5.22 7.497a7.5 7.5 0 0 0-.44-14.994Zm209.496-292.846a7.5 7.5 0 0 0-5.392 9.134l.068.255a7.556 7.556 0 0 0 7.247 5.508 7.494 7.494 0 0 0 7.214-9.49l-7.266 1.856 7.263-1.871a7.498 7.498 0 0 0-9.134-5.392ZM497 255.5a7.457 7.457 0 0 0-7.5-7.45 7.542 7.542 0 0 0-7.5 7.55c0 .086.001.171.004.256a8.048 8.048 0 0 0-.004.244 7.5 7.5 0 0 0 15 0v-.1c0-.07-.001-.14-.003-.209a8.31 8.31 0 0 0 .003-.191ZM212.984 476.438a20.014 20.014 0 0 0-.33-.075 7.565 7.565 0 1 0 .33.075Zm-1.994 8.229.012-.058.215-.881Zm30.46-3.686a7.5 7.5 0 0 0-1.683 14.906c.076.009.252.026.329.033.224.02.447.03.667.03a7.5 7.5 0 0 0 .688-14.969Zm35.74-279.154V193.5a7.5 7.5 0 0 0-15 0v6.704h-8.469V193.5a7.5 7.5 0 0 0-15 0v6.704h-14.608a7.5 7.5 0 0 0 0 15h2.9v81.592h-2.9a7.5 7.5 0 1 0 0 15h14.608v6.704a7.5 7.5 0 0 0 15 0v-6.704h8.47v6.704a7.5 7.5 0 0 0 15 0v-8.327a27.546 27.546 0 0 0 18.196-25.877V276a27.42 27.42 0 0 0-8.655-20 27.42 27.42 0 0 0 8.655-20v-8.296a27.546 27.546 0 0 0-18.197-25.877Zm3.197 82.469a12.514 12.514 0 0 1-12.5 12.5h-25.873V263.5h25.873a12.514 12.514 0 0 1 12.5 12.5Zm0-48.296a12.514 12.514 0 0 1-12.5 12.5h-25.873v-33.296h25.873a12.514 12.514 0 0 1 12.5 12.5Zm231.36 138.933-.062-.212q-.101-.342-.237-.677c-.028-.07-.054-.14-.084-.21a7.543 7.543 0 0 0-.407-.804l-.006-.008-.019-.03a7.567 7.567 0 0 0-.496-.721c-.047-.062-.098-.12-.148-.181q-.23-.28-.482-.534c-.05-.05-.097-.1-.148-.148a7.432 7.432 0 0 0-1.484-1.094c-.029-.016-.054-.036-.083-.052l-73.904-40.312a7.501 7.501 0 0 0-7.183 0l-73.905 40.312c-.03.016-.056.037-.085.054a7.454 7.454 0 0 0-1.479 1.09c-.053.05-.102.102-.153.153q-.25.251-.478.529c-.05.061-.102.121-.15.184a7.543 7.543 0 0 0-.496.72l-.019.03-.006.008a7.543 7.543 0 0 0-.406.804c-.03.07-.056.14-.085.21q-.135.336-.237.677c-.02.07-.042.14-.061.212a7.447 7.447 0 0 0-.247 1.823c0 .03-.007.06-.007.09v87.343a7.5 7.5 0 0 0 3.91 6.584l73.888 40.302a7.447 7.447 0 0 0 .822.385c.057.022.115.041.172.062q.321.12.655.21l.228.06c.213.05.429.09.648.121.073.01.145.025.218.034a7.007 7.007 0 0 0 1.728 0c.073-.009.145-.023.218-.034a7.46 7.46 0 0 0 .876-.18q.335-.09.656-.21c.057-.022.115-.04.171-.063a7.447 7.447 0 0 0 .822-.385l73.89-40.303a7.5 7.5 0 0 0 3.908-6.584v-87.342c0-.03-.006-.06-.006-.09a7.447 7.447 0 0 0-.248-1.823Zm-88.652 116.933-58.905-32.13V389.99l58.905 34.808Zm7.5-80.06-58.72-34.7 58.72-32.029 58.721 32.03ZM497 459.736l-58.905 32.13v-67.069L497 389.99Zm-2.019-235.068a7.457 7.457 0 0 0-8.372-6.407 7.525 7.525 0 1 0 8.395 6.588l-.023-.181ZM162.556 374.933c-.019-.071-.04-.141-.061-.212q-.102-.342-.237-.677c-.029-.07-.055-.14-.085-.21a7.543 7.543 0 0 0-.406-.804l-.006-.008-.02-.03a7.538 7.538 0 0 0-.495-.721c-.048-.062-.098-.12-.147-.18q-.232-.283-.485-.537c-.049-.049-.096-.098-.146-.145a7.44 7.44 0 0 0-1.486-1.096c-.028-.015-.053-.036-.081-.051L84.996 329.95a7.501 7.501 0 0 0-7.183 0L3.91 370.262c-.03.016-.056.038-.086.054a7.455 7.455 0 0 0-1.477 1.089c-.054.05-.104.103-.156.156q-.249.25-.475.525c-.051.062-.104.123-.153.187a7.54 7.54 0 0 0-.494.72l-.02.029-.005.008a7.543 7.543 0 0 0-.407.804c-.03.07-.056.14-.084.21q-.136.336-.237.677c-.021.07-.043.14-.061.212a7.447 7.447 0 0 0-.248 1.823c0 .03-.006.06-.006.09v87.342a7.5 7.5 0 0 0 3.909 6.584l73.889 40.303a7.447 7.447 0 0 0 .822.385c.056.022.114.041.171.062q.322.12.656.21c.076.021.151.041.227.06.213.05.43.09.649.121.073.01.145.025.218.034a7.007 7.007 0 0 0 1.728 0c.073-.009.145-.023.218-.034a7.46 7.46 0 0 0 .876-.18q.334-.09.655-.21c.057-.022.115-.04.172-.063a7.447 7.447 0 0 0 .822-.385l73.889-40.303a7.5 7.5 0 0 0 3.909-6.584v-87.342c0-.03-.006-.06-.007-.09a7.447 7.447 0 0 0-.247-1.823ZM73.905 491.866 15 459.736V389.99l58.905 34.808Zm7.5-80.06-58.721-34.7 58.72-32.029 58.722 32.03Zm66.405 47.93-58.905 32.13v-67.069l58.905-34.808ZM41.397 200.248a7.5 7.5 0 0 0-14.23-4.744l-.042.129a7.493 7.493 0 0 0 7.115 9.788 7.573 7.573 0 0 0 7.157-5.173ZM369.772 256A113.772 113.772 0 1 0 256 369.772 113.901 113.901 0 0 0 369.772 256ZM256 354.772A98.772 98.772 0 1 1 354.772 256 98.885 98.885 0 0 1 256 354.772Zm227.796-46.82a7.56 7.56 0 1 0 5.34 9.336l.051-.2a7.502 7.502 0 0 0-5.39-9.136Zm4.798-29.537a7.503 7.503 0 0 0-8.42 6.451c-.003.028-.02.154-.022.18a7.5 7.5 0 0 0 14.889 1.82l-7.431-1.015 7.435.984a7.5 7.5 0 0 0-6.451-8.42Zm-303.45 189.803a14.724 14.724 0 0 0-.288-.105 7.564 7.564 0 1 0 .289.105Zm-3.118 8.316.039-.11.446-1.184Z"/></svg>