<svg xmlns="http://www.w3.org/2000/svg" enable-background="new 0 0 32 32" viewBox="0 0 32 32"><path fill="none" stroke="#000" stroke-linecap="round" stroke-linejoin="round" stroke-miterlimit="10" stroke-width="2" d="M16.306,21.359l3.675-0.306c0.792-0.066,1.402-0.728,1.402-1.523v0c0-0.844-0.684-1.529-1.529-1.529h-6.181
	c-1.051,0-2.087,0.245-3.027,0.715L7.436,20.32"/><path fill="none" stroke="#000" stroke-linecap="round" stroke-linejoin="round" stroke-miterlimit="10" stroke-width="2" d="M21.373,19.693l5.841-1.603c0.701-0.192,1.431,0.187,1.677,0.871v0c0.242,0.672-0.065,1.419-0.71,1.726
	l-8.298,4.493c-0.914,0.495-1.985,0.615-2.985,0.334l-4.42-1.24l-3.444,1.678"/><polyline fill="none" stroke="#000" stroke-linecap="round" stroke-linejoin="round" stroke-miterlimit="10" stroke-width="2" points="3 20.644 7.082 18.998 9.296 27.249 6 28.988"/><polygon fill="none" stroke="#000" stroke-linecap="round" stroke-linejoin="round" stroke-miterlimit="10" stroke-width="2" points="28 7.143 28 12.857 23 15.714 18 12.857 18 7.143 23 4.286"/><polyline fill="none" stroke="#000" stroke-linecap="round" stroke-linejoin="round" stroke-miterlimit="10" stroke-width="2" points="28 7.143 23 10 18 7.143 18 7.143"/><line x1="23" x2="23" y1="10" y2="15.714" fill="none" stroke="#000" stroke-linecap="round" stroke-linejoin="round" stroke-miterlimit="10" stroke-width="2"/><line x1="15" x2="11" y1="12" y2="12" fill="none" stroke="#000" stroke-linecap="round" stroke-linejoin="round" stroke-miterlimit="10" stroke-width="2"/><circle cx="9" cy="12" r="2" fill="none" stroke="#000" stroke-linecap="round" stroke-linejoin="round" stroke-miterlimit="10" stroke-width="2"/><circle cx="10" cy="5" r="2" fill="none" stroke="#000" stroke-linecap="round" stroke-linejoin="round" stroke-miterlimit="10" stroke-width="2"/><polyline fill="none" stroke="#000" stroke-linecap="round" stroke-linejoin="round" stroke-miterlimit="10" stroke-width="2" points="15 8 13 8 11.414 6.414"/></svg>