<svg xmlns="http://www.w3.org/2000/svg" enable-background="new 0 0 512 512" viewBox="0 0 512 512"><path d="M222.263,312.087c-9.997-30.48-17.277-61.937-13.963-81.17c0-0.218,0.054-0.381,0.109-0.598c0.435-2.39-2.119-4.401-4.455-3.422c-5.053,2.173-9.725,5.161-13.909,8.747c-15.647,13.365-24.721,34.99-25.101,55.256c-0.109,3.097,2.934,5.27,6.574,4.998l28.741-1.957l-17.875,18.147H222.263z"/><path d="M172.441 306.708c-11.062-1.813-18.655-4.926-18.364-16.136.326-17.821 6.52-35.696 16.68-49.821-27.274 7.116-50.637 11.681-52.592 11.681-24.938 9.617-35.913 29.991-35.913 49.549v10.106h84.811C169.29 309.751 171.518 308.012 172.441 306.708zM278.224 312.087c8.258-24.449 14.615-49.223 15.375-67.154-20.7 21.136-54.494 21.19-75.194 0 .706 17.931 7.117 42.759 15.321 67.154H278.224zM357.928 290.681c.297 11.125-7.428 14.24-18.364 16.027.924 1.358 3.097 3.097 5.324 5.379h84.865v-10.159c0-22.548-14.398-42.324-35.804-49.496-.435-.109-29.121-7.225-53.951-13.42C350.973 253.409 357.602 271.937 357.928 290.681z"/><path d="M347.061 290.898c-.38-20.755-9.888-43.031-26.296-56.288-3.912-3.096-8.095-5.759-12.713-7.715-2.336-.979-4.89 1.032-4.455 3.422.054.218.109.435.163.707 3.206 19.233-4.075 50.637-14.072 81.062h39.933l-17.875-18.147 28.741 1.957C344.127 296.168 347.17 293.995 347.061 290.898zM185.752 153.623c1.123 3.114-4.923 24.903 33.305 65.796 19.947 21.305 54.083 21.272 73.999 0 38.336-41.008 32.214-62.629 33.359-65.796 12.162 0 18.528-14.607 9.997-23.526 7.172-15.864 11.247-33.032 11.247-49.496 0-52.048-41.02-76.552-91.657-76.552-50.528 0-91.548 24.503-91.548 76.552 0 16.464 4.075 33.632 11.246 49.496C167.166 139.021 173.552 153.623 185.752 153.623zM453.145 322.954H58.855c-10.4 0-17.662 10.302-14.166 20.097l55.285 154.914c2.137 5.988 7.808 9.985 14.166 9.985h283.72c6.358 0 12.029-3.998 14.166-9.985l55.285-154.914C470.807 333.257 463.545 322.954 453.145 322.954zM256.002 443.008c-18.732 0-33.929-9.057-33.929-20.279 0-11.222 15.197-20.321 33.929-20.321s33.929 9.099 33.929 20.321C289.931 433.951 274.734 443.008 256.002 443.008z"/></svg>