<svg xmlns="http://www.w3.org/2000/svg" width="79.969" height="79.594"><path fill="#3f4662" fill-rule="evenodd" d="m514.8 276.955-3.923 3.922-3.923 3.9a.279.279 0 0 1-.478 0l-12.027-12.027a.392.392 0 0 1 0-.5l7.826-7.825a.345.345 0 0 1 .239-.1.39.39 0 0 1 .259.1l12.027 12.032a.42.42 0 0 1 0 .498zm25.169 8.483-.537-.558a3.394 3.394 0 0 1-1.016-3.087c1.354-6.093-4.2-11.23-10.892-15.571a22.135 22.135 0 0 1 4.918-.617c4.8 0 8.523 2.329 11.729 7.327a1.978 1.978 0 0 0 1.673.936h3.723a3.637 3.637 0 0 1 2.549 1.055l2.29 2.291a3.549 3.549 0 0 1 1.055 2.548v.738a5.456 5.456 0 0 0 5.437 5.436 3.493 3.493 0 0 1 2.509 1.036l1.194 1.195a3.747 3.747 0 0 1 0 5.216l-5.436 5.417a3.667 3.667 0 0 1-5.1 0l-1.613-1.593a3.615 3.615 0 0 1-1.056-2.569 5.43 5.43 0 0 0-5.436-5.436h-.717a3.651 3.651 0 0 1-2.569-1.056c-.159-.159-.3-.318-.437-.458zm25.13 48.128-1.533 1.533a3.238 3.238 0 0 1-4.441 0L545.4 321.38a.305.305 0 0 1 0-.4l2.788-2.787 2.788-2.788a.257.257 0 0 1 .2-.08.272.272 0 0 1 .219.08l13.7 13.7a3.172 3.172 0 0 1 .005 4.461z" data-name="tools" opacity=".1" transform="translate(-490.031 -260.406)"/><path fill="#3f4662" fill-rule="evenodd" d="m567.926 326.3-13.72-13.72a4.367 4.367 0 0 0-6.034 0l-1.394 1.394-10.533-10.534 6.153-6.87a6.56 6.56 0 0 0 1.632-3.484 8.086 8.086 0 0 0 1.215.1h.717a1.455 1.455 0 0 1 1.454 1.474 7.513 7.513 0 0 0 2.23 5.356l1.593 1.613a7.57 7.57 0 0 0 10.733 0l5.436-5.436a7.7 7.7 0 0 0 2.23-5.476 7.559 7.559 0 0 0-2.23-5.376l-1.175-1.175a7.484 7.484 0 0 0-5.336-2.21 1.462 1.462 0 0 1-1.454-1.454v-.737a7.529 7.529 0 0 0-2.211-5.356l-2.309-2.31a7.614 7.614 0 0 0-5.357-2.21h-2.648c-3.843-5.556-8.6-8.264-14.477-8.264a35.578 35.578 0 0 0-10.434 2.011 2 2 0 0 0-.418 3.624c6.074 3.545 14.019 8.842 12.943 13.66a6.719 6.719 0 0 0-.039 2.748 6.39 6.39 0 0 0-3.386 1.613l-6.87 6.153-9.139-9.14 2.509-2.529a4.3 4.3 0 0 0 0-6.113l-12.028-12.027a4.426 4.426 0 0 0-6.113 0l-7.845 7.825a4.375 4.375 0 0 0 0 6.134l12.027 12.027a4.376 4.376 0 0 0 6.133 0l2.509-2.509 8.98 8.98-7.029 6.293a2 2 0 0 0 2.669 2.967l7.188-6.432 2.967-2.668 6.691-5.994a2.492 2.492 0 0 1 3.4 0l2.27 2.27a2.467 2.467 0 0 1 0 3.385l-6.014 6.711-2.648 2.967-24.851 27.738a6.992 6.992 0 0 1-5.078 2.33 6.3 6.3 0 0 1-4.679-1.872l-.259-.259a6.476 6.476 0 0 1-1.892-4.679 7.013 7.013 0 0 1 2.35-5.078l10.793-9.658a2.009 2.009 0 0 0 .139-2.827 1.986 1.986 0 0 0-2.808-.14l-10.792 9.658a11.1 11.1 0 0 0-3.664 7.985 10.513 10.513 0 0 0 3.046 7.547l.259.259a10.509 10.509 0 0 0 7.408 3.046h.139a10.939 10.939 0 0 0 7.985-3.644L533.6 306.4l10.375 10.375-1.374 1.374a4.277 4.277 0 0 0 0 6.053l13.7 13.7a7.138 7.138 0 0 0 10.1 0l1.534-1.533a7.163 7.163 0 0 0-.009-10.069zM514.8 276.955l-3.923 3.922-3.923 3.9a.279.279 0 0 1-.478 0l-12.027-12.027a.392.392 0 0 1 0-.5l7.826-7.825a.345.345 0 0 1 .239-.1.39.39 0 0 1 .259.1l12.027 12.032a.42.42 0 0 1 0 .498zm25.169 8.483-.537-.558a3.394 3.394 0 0 1-1.016-3.087c1.354-6.093-4.2-11.23-10.892-15.571a22.135 22.135 0 0 1 4.918-.617c4.8 0 8.523 2.329 11.729 7.327a1.978 1.978 0 0 0 1.673.936h3.723a3.637 3.637 0 0 1 2.549 1.055l2.29 2.291a3.549 3.549 0 0 1 1.055 2.548v.738a5.456 5.456 0 0 0 5.437 5.436 3.493 3.493 0 0 1 2.509 1.036l1.194 1.195a3.747 3.747 0 0 1 0 5.216l-5.436 5.417a3.667 3.667 0 0 1-5.1 0l-1.613-1.593a3.615 3.615 0 0 1-1.056-2.569 5.43 5.43 0 0 0-5.436-5.436h-.717a3.651 3.651 0 0 1-2.569-1.056c-.159-.159-.3-.318-.437-.458zm25.13 48.128-1.533 1.533a3.238 3.238 0 0 1-4.441 0L545.4 321.38a.305.305 0 0 1 0-.4l2.788-2.787 2.788-2.788a.257.257 0 0 1 .2-.08.272.272 0 0 1 .219.08l13.7 13.7a3.172 3.172 0 0 1 .005 4.461z" data-name="tools" transform="translate(-490.031 -260.406)"/></svg>